<svg xmlns="http://www.w3.org/2000/svg" viewBox="0 0 64 64">
  <path fill="currentColor" d="M32 10c-12.1 0-22 9.4-22 21 0 7 4.3 13.2 10.7 17l-.7 4.5c-.3 2 1.4 3.5 3.3 2.9L32 52l8.7 3.4c1.9.7 3.6-.9 3.3-2.9l-.7-4.5C49.7 44.2 54 38 54 31c0-11.6-9.9-21-22-21zm0 4c9.9 0 18 7.6 18 17S41.9 48 32 48s-18-7.6-18-17 8.1-17 18-17z"/>
  <circle fill="var(--icon-color-accent, #ff8700)" cx="22" cy="38" r="4"/>
  <circle fill="var(--icon-color-accent, #ff8700)" cx="32" cy="44" r="4"/>
  <circle fill="var(--icon-color-accent, #ff8700)" cx="42" cy="38" r="4"/>
  <circle fill="currentColor" cx="22" cy="28" r="4"/>
  <circle fill="currentColor" cx="32" cy="24" r="4"/>
  <circle fill="currentColor" cx="42" cy="28" r="4"/>
</svg>
